<?xml version="1.0" encoding="UTF-8"?>
<svg id="_Слой_2" data-name="Слой 2" xmlns="http://www.w3.org/2000/svg" viewBox="0 0 865.13 130.77">
  <defs>
    <style>
      .cls-1 {
        fill: #f0f0f0;
      }
    </style>
  </defs>
  <g id="_Слой_5" data-name="Слой 5">
    <path class="cls-1" d="m92.16,48.75c11.87,7.92,11.87,25.37,0,33.28l-61.06,40.71c-13.29,8.86-31.09-.67-31.09-16.64V24.68C0,8.7,17.8-.82,31.09,8.04l61.06,40.71Z"/>
    <path class="cls-1" d="m130.16,48.75c11.87,7.92,11.87,25.37,0,33.28l-61.06,40.71c-13.29,8.86-31.09-.67-31.09-16.64V24.68c0-15.97,17.8-25.5,31.09-16.64l61.06,40.71Z"/>
    <path class="cls-1" d="m206.21,58.08l-16.41-4.51c-4.09-1.2-7.19-3.09-9.29-5.68-2.11-2.58-3.16-5.8-3.16-9.65,0-3.61.72-6.61,2.16-9.02,1.44-2.4,3.61-4.3,6.49-5.68,2.89-1.38,6.31-2.07,10.28-2.07,4.81,0,9.74.9,14.79,2.71,5.05,1.8,9.38,4.45,12.99,7.94l6.67-19.3c-2.77-2.64-6.04-4.96-9.83-6.94-3.79-1.98-7.91-3.46-12.36-4.42-4.45-.96-8.96-1.44-13.53-1.44-8.54,0-16.05,1.65-22.55,4.96-6.49,3.31-11.52,8-15.06,14.07-3.55,6.07-5.32,13.14-5.32,21.19,0,9.02,2.28,16.39,6.85,22.1,4.57,5.71,11.42,9.89,20.56,12.54l16.77,4.51c2.89.84,5.35,1.92,7.4,3.25,2.04,1.32,3.55,2.95,4.51,4.87.96,1.92,1.44,4.21,1.44,6.85,0,4.93-1.65,8.66-4.96,11.18-3.31,2.53-7.97,3.79-13.98,3.79-3.85,0-7.82-.48-11.9-1.44-4.09-.96-7.97-2.28-11.63-3.97-3.67-1.68-7.12-3.67-10.37-5.95l-6.67,20.2c3.49,2.65,7.36,4.9,11.63,6.76,4.27,1.87,8.96,3.31,14.07,4.33,5.11,1.02,10.13,1.53,15.06,1.53,8.78,0,16.44-1.56,23-4.69,6.55-3.13,11.66-7.63,15.33-13.53,3.67-5.89,5.5-12.74,5.5-20.56,0-8.9-2.34-16.14-7.03-21.74-4.69-5.59-11.85-9.65-21.46-12.18ZM304.34,6.58c-5.53-3.18-12.21-4.78-20.02-4.78h-47.8v127.16h25.43v-46.54h22.37c7.82,0,14.49-1.62,20.02-4.87,5.53-3.25,9.77-7.87,12.72-13.89,2.95-6.01,4.42-13.23,4.42-21.65s-1.47-15.63-4.42-21.64c-2.95-6.01-7.19-10.61-12.72-13.8Zm-11.72,50.51c-3.01,3.55-7.22,5.32-12.63,5.32h-18.04V21.83h18.04c5.41,0,9.62,1.78,12.63,5.32,3,3.55,4.51,8.51,4.51,14.88s-1.51,11.52-4.51,15.06ZM348.35,1.8h-25.43v127.16h71.79v-21.65h-46.36V1.8Zm215.37,56.28l-16.41-4.51c-4.09-1.2-7.19-3.09-9.29-5.68-2.11-2.58-3.16-5.8-3.16-9.65,0-3.61.72-6.61,2.16-9.02,1.44-2.4,3.61-4.3,6.49-5.68,2.89-1.38,6.31-2.07,10.28-2.07,4.81,0,9.74.9,14.79,2.71,5.05,1.8,9.38,4.45,12.99,7.94l6.67-19.3c-2.77-2.64-6.04-4.96-9.83-6.94-3.79-1.98-7.91-3.46-12.36-4.42-4.45-.96-8.96-1.44-13.53-1.44-8.54,0-16.05,1.65-22.55,4.96-6.49,3.31-11.52,8-15.06,14.07-3.55,6.07-5.32,13.14-5.32,21.19,0,9.02,2.28,16.39,6.85,22.1,4.57,5.71,11.42,9.89,20.56,12.54l16.77,4.51c2.89.84,5.35,1.92,7.4,3.25,2.04,1.32,3.55,2.95,4.51,4.87.96,1.92,1.44,4.21,1.44,6.85,0,4.93-1.65,8.66-4.96,11.18-3.31,2.53-7.97,3.79-13.98,3.79-3.85,0-7.82-.48-11.9-1.44-4.09-.96-7.97-2.28-11.63-3.97-3.67-1.68-7.12-3.67-10.37-5.95l-5.88,17.79L465.59,1.8h-20.56l-47.98,127.16h25.61l9.11-28.5h46.56l9.26,28.5h25.79l-3.45-9.17c2.87,1.94,5.96,3.65,9.31,5.11,4.27,1.87,8.96,3.31,14.07,4.33,5.11,1.02,10.13,1.53,15.06,1.53,8.78,0,16.44-1.56,23-4.69,6.55-3.13,11.66-7.63,15.33-13.53,3.67-5.89,5.5-12.74,5.5-20.56,0-8.9-2.34-16.14-7.03-21.74-4.69-5.59-11.85-9.65-21.46-12.18Zm-125.42,22.37l16.65-51.23h.18l16.65,51.23h-33.48Zm224.98-26.52h-43.83V1.8h-25.43v127.16h25.43v-53.75h43.83v53.75h25.79V1.8h-25.79v52.13Zm32.29,75.04h71.97v-20.02h-47.62v-34.63h43.65v-20.02h-43.65V21.83h47.62V1.8h-71.97v127.16Zm153.5-37.52c-2.05-4.93-4.69-8.63-7.94-11.09-1.82-1.38-3.79-2.36-5.91-2.97,2.01-.69,3.93-1.52,5.73-2.54,5.53-3.13,9.77-7.6,12.72-13.44,2.95-5.83,4.42-12.78,4.42-20.83,0-12.14-3.34-21.64-10.01-28.5s-15.78-10.28-27.33-10.28h-47.62v127.16h25.43v-48.88h8.66c2.16,0,3.97.27,5.41.81,1.44.54,2.76,1.53,3.97,2.98,1.2,1.44,2.28,3.31,3.25,5.59l16.96,39.5h28.32l-16.05-37.52Zm-19.93-35.44c-3.07,3.43-7.37,5.14-12.9,5.14h-17.68V21.83h17.68c5.53,0,9.83,1.69,12.9,5.05,3.07,3.37,4.6,8.18,4.6,14.43s-1.53,11.27-4.6,14.7Z"/>
  </g>
</svg>